<?xml version="1.0" encoding="UTF-8" standalone="no"?>
<svg
   xmlns:dc="http://purl.org/dc/elements/1.1/"
   xmlns:cc="http://creativecommons.org/ns#"
   xmlns:rdf="http://www.w3.org/1999/02/22-rdf-syntax-ns#"
   xmlns:svg="http://www.w3.org/2000/svg"
   xmlns="http://www.w3.org/2000/svg"
   viewBox="0 0 576 384"
   height="384"
   width="576"
   xml:space="preserve"
   id="svg2"
   version="1.1"><metadata
     id="metadata8"><rdf:RDF><cc:Work
         rdf:about=""><dc:format>image/svg+xml</dc:format><dc:type
           rdf:resource="http://purl.org/dc/dcmitype/StillImage" /></cc:Work></rdf:RDF></metadata><defs
     id="defs6"><clipPath
       id="clipPath150"
       clipPathUnits="userSpaceOnUse"><path
         id="path148"
         d="M 540,360 H 3888 V 2534 H 540 Z" /></clipPath></defs><g
     transform="matrix(1.3333333,0,0,-1.3333333,0,384)"
     id="g10"><g
       transform="scale(0.1)"
       id="g12"><path
         id="path14"
         style="fill:#ffffff;fill-opacity:1;fill-rule:nonzero;stroke:none"
         d="M 0,0 H 4320 V 2880 H 0 Z" /><path
         id="path16"
         style="fill:#ffffff;fill-opacity:1;fill-rule:nonzero;stroke:none"
         d="M 540,360 H 3888 V 2534.4 H 540 Z" /><path
         id="path18"
         style="fill:#000000;fill-opacity:1;fill-rule:nonzero;stroke:none"
         d="M 692.184,360 V 325" /><path
         id="path20"
         style="fill:none;stroke:#000000;stroke-width:8;stroke-linecap:butt;stroke-linejoin:round;stroke-miterlimit:10;stroke-dasharray:none;stroke-opacity:1"
         d="M 692.184,360 V 325" /><g
         transform="scale(10)"
         id="g22"><text
           id="text26"
           style="font-variant:normal;font-weight:normal;font-size:10px;font-family:Arial;-inkscape-font-specification:Arial;writing-mode:lr-tb;fill:#000000;fill-opacity:1;fill-rule:nonzero;stroke:none"
           transform="matrix(1,0,0,-1,61.2652,21.4063)"><tspan
             id="tspan24"
             y="0"
             x="0 6.362112 9.5410194">0.0</tspan></text>
</g><path
         id="path28"
         style="fill:#000000;fill-opacity:1;fill-rule:nonzero;stroke:none"
         d="M 1300.91,360 V 325" /><path
         id="path30"
         style="fill:none;stroke:#000000;stroke-width:8;stroke-linecap:butt;stroke-linejoin:round;stroke-miterlimit:10;stroke-dasharray:none;stroke-opacity:1"
         d="M 1300.91,360 V 325" /><g
         transform="scale(10)"
         id="g32"><text
           id="text36"
           style="font-variant:normal;font-weight:normal;font-size:10px;font-family:Arial;-inkscape-font-specification:Arial;writing-mode:lr-tb;fill:#000000;fill-opacity:1;fill-rule:nonzero;stroke:none"
           transform="matrix(1,0,0,-1,122.138,21.4063)"><tspan
             id="tspan34"
             y="0"
             x="0 6.362112 9.5410128">0.2</tspan></text>
</g><path
         id="path38"
         style="fill:#000000;fill-opacity:1;fill-rule:nonzero;stroke:none"
         d="M 1909.64,360 V 325" /><path
         id="path40"
         style="fill:none;stroke:#000000;stroke-width:8;stroke-linecap:butt;stroke-linejoin:round;stroke-miterlimit:10;stroke-dasharray:none;stroke-opacity:1"
         d="M 1909.64,360 V 325" /><g
         transform="scale(10)"
         id="g42"><text
           id="text46"
           style="font-variant:normal;font-weight:normal;font-size:10px;font-family:Arial;-inkscape-font-specification:Arial;writing-mode:lr-tb;fill:#000000;fill-opacity:1;fill-rule:nonzero;stroke:none"
           transform="matrix(1,0,0,-1,183.011,21.4063)"><tspan
             id="tspan44"
             y="0"
             x="0 6.362112 9.5410128">0.4</tspan></text>
</g><path
         id="path48"
         style="fill:#000000;fill-opacity:1;fill-rule:nonzero;stroke:none"
         d="M 2518.36,360 V 325" /><path
         id="path50"
         style="fill:none;stroke:#000000;stroke-width:8;stroke-linecap:butt;stroke-linejoin:round;stroke-miterlimit:10;stroke-dasharray:none;stroke-opacity:1"
         d="M 2518.36,360 V 325" /><g
         transform="scale(10)"
         id="g52"><text
           id="text56"
           style="font-variant:normal;font-weight:normal;font-size:10px;font-family:Arial;-inkscape-font-specification:Arial;writing-mode:lr-tb;fill:#000000;fill-opacity:1;fill-rule:nonzero;stroke:none"
           transform="matrix(1,0,0,-1,243.883,21.4063)"><tspan
             id="tspan54"
             y="0"
             x="0 6.3624902 9.5410013">0.6</tspan></text>
</g><path
         id="path58"
         style="fill:#000000;fill-opacity:1;fill-rule:nonzero;stroke:none"
         d="M 3127.09,360 V 325" /><path
         id="path60"
         style="fill:none;stroke:#000000;stroke-width:8;stroke-linecap:butt;stroke-linejoin:round;stroke-miterlimit:10;stroke-dasharray:none;stroke-opacity:1"
         d="M 3127.09,360 V 325" /><g
         transform="scale(10)"
         id="g62"><text
           id="text66"
           style="font-variant:normal;font-weight:normal;font-size:10px;font-family:Arial;-inkscape-font-specification:Arial;writing-mode:lr-tb;fill:#000000;fill-opacity:1;fill-rule:nonzero;stroke:none"
           transform="matrix(1,0,0,-1,304.756,21.4063)"><tspan
             id="tspan64"
             y="0"
             x="0 6.3624902 9.5410013">0.8</tspan></text>
</g><path
         id="path68"
         style="fill:#000000;fill-opacity:1;fill-rule:nonzero;stroke:none"
         d="M 3735.82,360 V 325" /><path
         id="path70"
         style="fill:none;stroke:#000000;stroke-width:8;stroke-linecap:butt;stroke-linejoin:round;stroke-miterlimit:10;stroke-dasharray:none;stroke-opacity:1"
         d="M 3735.82,360 V 325" /><g
         transform="scale(10)"
         id="g72"><text
           id="text78"
           style="font-variant:normal;font-weight:normal;font-size:10px;font-family:Arial;-inkscape-font-specification:Arial;writing-mode:lr-tb;fill:#000000;fill-opacity:1;fill-rule:nonzero;stroke:none"
           transform="matrix(1,0,0,-1,365.629,21.4063)"><tspan
             id="tspan74"
             y="0"
             x="0 6.3624902 9.5410013">1.0</tspan><tspan
             id="tspan76"
             y="13.6719"
             x="-153.59599 -147.84404 -141.81404">FPR</tspan></text>
</g><path
         id="path80"
         style="fill:#000000;fill-opacity:1;fill-rule:nonzero;stroke:none"
         d="M 540,458.836 H 505" /><path
         id="path82"
         style="fill:none;stroke:#000000;stroke-width:8;stroke-linecap:butt;stroke-linejoin:round;stroke-miterlimit:10;stroke-dasharray:none;stroke-opacity:1"
         d="M 540,458.836 H 505" /><g
         transform="scale(10)"
         id="g84"><text
           id="text88"
           style="font-variant:normal;font-weight:normal;font-size:10px;font-family:Arial;-inkscape-font-specification:Arial;writing-mode:lr-tb;fill:#000000;fill-opacity:1;fill-rule:nonzero;stroke:none"
           transform="matrix(1,0,0,-1,31.0938,42.0867)"><tspan
             id="tspan86"
             y="0"
             x="0 6.3624992 9.5410166">0.0</tspan></text>
</g><path
         id="path90"
         style="fill:#000000;fill-opacity:1;fill-rule:nonzero;stroke:none"
         d="M 540,854.184 H 505" /><path
         id="path92"
         style="fill:none;stroke:#000000;stroke-width:8;stroke-linecap:butt;stroke-linejoin:round;stroke-miterlimit:10;stroke-dasharray:none;stroke-opacity:1"
         d="M 540,854.184 H 505" /><g
         transform="scale(10)"
         id="g94"><text
           id="text98"
           style="font-variant:normal;font-weight:normal;font-size:10px;font-family:Arial;-inkscape-font-specification:Arial;writing-mode:lr-tb;fill:#000000;fill-opacity:1;fill-rule:nonzero;stroke:none"
           transform="matrix(1,0,0,-1,31.0938,81.6215)"><tspan
             id="tspan96"
             y="0"
             x="0 6.3624992 9.5410166">0.2</tspan></text>
</g><path
         id="path100"
         style="fill:#000000;fill-opacity:1;fill-rule:nonzero;stroke:none"
         d="M 540,1249.53 H 505" /><path
         id="path102"
         style="fill:none;stroke:#000000;stroke-width:8;stroke-linecap:butt;stroke-linejoin:round;stroke-miterlimit:10;stroke-dasharray:none;stroke-opacity:1"
         d="M 540,1249.53 H 505" /><g
         transform="scale(10)"
         id="g104"><text
           id="text108"
           style="font-variant:normal;font-weight:normal;font-size:10px;font-family:Arial;-inkscape-font-specification:Arial;writing-mode:lr-tb;fill:#000000;fill-opacity:1;fill-rule:nonzero;stroke:none"
           transform="matrix(1,0,0,-1,31.0938,121.156)"><tspan
             id="tspan106"
             y="0"
             x="0 6.3624992 9.5410166">0.4</tspan></text>
</g><path
         id="path110"
         style="fill:#000000;fill-opacity:1;fill-rule:nonzero;stroke:none"
         d="M 540,1644.87 H 505" /><path
         id="path112"
         style="fill:none;stroke:#000000;stroke-width:8;stroke-linecap:butt;stroke-linejoin:round;stroke-miterlimit:10;stroke-dasharray:none;stroke-opacity:1"
         d="M 540,1644.87 H 505" /><g
         transform="scale(10)"
         id="g114"><text
           id="text118"
           style="font-variant:normal;font-weight:normal;font-size:10px;font-family:Arial;-inkscape-font-specification:Arial;writing-mode:lr-tb;fill:#000000;fill-opacity:1;fill-rule:nonzero;stroke:none"
           transform="matrix(1,0,0,-1,31.0938,160.69)"><tspan
             id="tspan116"
             y="0"
             x="0 6.3624992 9.5410166">0.6</tspan></text>
</g><path
         id="path120"
         style="fill:#000000;fill-opacity:1;fill-rule:nonzero;stroke:none"
         d="M 540,2040.22 H 505" /><path
         id="path122"
         style="fill:none;stroke:#000000;stroke-width:8;stroke-linecap:butt;stroke-linejoin:round;stroke-miterlimit:10;stroke-dasharray:none;stroke-opacity:1"
         d="M 540,2040.22 H 505" /><g
         transform="scale(10)"
         id="g124"><text
           id="text128"
           style="font-variant:normal;font-weight:normal;font-size:10px;font-family:Arial;-inkscape-font-specification:Arial;writing-mode:lr-tb;fill:#000000;fill-opacity:1;fill-rule:nonzero;stroke:none"
           transform="matrix(1,0,0,-1,31.0938,200.225)"><tspan
             id="tspan126"
             y="0"
             x="0 6.3624992 9.5410166">0.8</tspan></text>
</g><path
         id="path130"
         style="fill:#000000;fill-opacity:1;fill-rule:nonzero;stroke:none"
         d="M 540,2435.56 H 505" /><path
         id="path132"
         style="fill:none;stroke:#000000;stroke-width:8;stroke-linecap:butt;stroke-linejoin:round;stroke-miterlimit:10;stroke-dasharray:none;stroke-opacity:1"
         d="M 540,2435.56 H 505" /><g
         transform="scale(10)"
         id="g134"><text
           id="text138"
           style="font-variant:normal;font-weight:normal;font-size:10px;font-family:Arial;-inkscape-font-specification:Arial;writing-mode:lr-tb;fill:#000000;fill-opacity:1;fill-rule:nonzero;stroke:none"
           transform="matrix(1,0,0,-1,31.0938,239.759)"><tspan
             id="tspan136"
             y="0"
             x="0 6.3624992 9.5410166">1.0</tspan></text>
<text
           id="text142"
           style="font-variant:normal;font-weight:normal;font-size:10px;font-family:Arial;-inkscape-font-specification:Arial;writing-mode:lr-tb;fill:#000000;fill-opacity:1;fill-rule:nonzero;stroke:none"
           transform="matrix(0,1,1,0,25.0156,135.173)"><tspan
             id="tspan140"
             y="0"
             x="0 6.1085963 12.138597">TPR</tspan></text>
</g><g
         id="g144"><g
           clip-path="url(#clipPath150)"
           id="g146"><path
             id="path152"
             style="fill:none;stroke:#1f77b4;stroke-width:15;stroke-linecap:square;stroke-linejoin:round;stroke-miterlimit:10;stroke-dasharray:none;stroke-opacity:1"
             d="M 692.184,458.836 3735.82,2435.56" /><path
             id="path154"
             style="fill:none;stroke:#ff7f0e;stroke-width:15;stroke-linecap:square;stroke-linejoin:round;stroke-miterlimit:10;stroke-dasharray:none;stroke-opacity:1"
             d="m 692.184,459.402 0.367,2.262 4.914,31.09 84.902,236.844 1.106,7.914 0.367,0.566 0.738,4.52 0.613,0.566 1.106,9.043 h 0.246 l 0.859,6.219 h 0.371 l 0.981,5.086 0.492,0.566 1.106,6.785 0.613,0.563 0.863,6.219 0.488,0.566 0.985,3.391 h 0.246 l 0.98,5.652 0.739,0.566 0.984,2.825 h 0.859 v 0.566 l 1.231,3.391 h 0.859 l 2.578,2.828 0.985,6.218 1.105,0.563 0.985,5.09 0.488,0.562 0.984,4.524 1.106,0.566 0.984,3.391 0.613,0.566 0.985,5.086 h 0.367 l 0.738,2.262 0.86,0.566 0.859,3.957 1.105,0.563 0.985,2.261 1.226,0.567 0.985,5.086 0.492,0.566 1.105,6.781 1.227,0.567 0.863,2.828 0.614,0.563 0.246,2.261 2.211,0.567 1.105,1.129 0.492,0.566 1.106,2.262 h 1.105 l 0.985,2.261 1.718,0.563 0.492,1.699 1.719,0.563 1.106,2.828 0.613,0.566 0.863,3.391 0.614,0.562 0.984,3.957 0.859,0.567 v 1.133 l 2.086,0.562 0.985,1.133 1.476,0.562 0.981,2.828 0.371,0.567 0.488,2.258 1.105,0.566 1.106,1.695 0.738,0.567 0.985,1.129 1.226,0.566 1.106,7.348 0.492,0.566 0.859,1.129 1.11,0.566 0.734,2.262 1.351,0.567 0.739,2.824 0.984,0.566 0.246,3.391 1.348,0.566 0.738,3.391 0.86,0.566 0.371,1.129 1.351,0.567 0.613,2.824 2.583,0.566 1.105,1.696 0.734,0.566 0.739,3.957 h 0.613 l 0.863,1.695 h 1.106 v 0.567 l 3.437,4.519 0.985,2.828 h 0.121 l 3.074,6.219 0.367,1.129 h 0.125 l 2.457,3.391 1.719,0.566 1.105,2.262 0.367,0.566 0.618,2.262 1.472,0.562 1.106,4.524 0.613,0.566 0.125,1.696 3.441,0.562 1.106,5.656 1.473,0.563 0.984,3.39 1.598,0.567 0.98,2.828 0.492,0.562 0.86,2.262 1.105,0.567 1.106,4.523 0.738,0.563 1.105,1.695 1.231,0.566 0.859,1.133 0.738,0.563 0.368,2.828 2.09,0.566 1.105,4.52 1.352,0.566 1.105,2.824 0.738,0.567 0.489,3.957 1.351,0.566 0.863,1.129 h 1.106 l 0.98,7.917 1.844,0.56 1.106,2.83 0.859,0.56 0.984,3.39 0.614,0.57 0.859,1.7 h 0.617 l 0.86,2.26 3.562,0.56 0.984,2.83 0.86,0.57 0.738,2.82 1.84,0.57 0.863,2.82 1.84,0.57 0.492,2.26 h 1.106 l 1.105,5.09 h 0.125 l 0.981,1.69 h 0.492 l 1.105,1.7 2.457,0.57 1.11,2.82 h 0.121 l 1.105,3.39 2.09,0.57 1.106,2.82 1.718,0.57 1.106,5.65 1.969,0.57 0.242,2.26 1.722,0.56 1.106,2.83 0.613,0.56 0.86,1.13 1.105,0.57 0.984,1.13 0.86,0.57 1.105,1.13 2.336,0.56 0.86,1.13 1.23,0.57 0.367,1.13 1.598,0.56 0.738,2.26 3.809,0.57 0.859,1.69 0.492,0.57 0.614,3.39 0.738,0.57 v 0.56 h 1.226 l 1.106,2.26 2.457,0.57 0.863,3.39 h 0.488 l 0.493,2.83 1.476,0.56 0.613,5.09 h 0.614 l 0.371,2.26 1.473,0.56 0.859,2.83 2.582,0.57 0.859,3.39 0.981,0.57 0.863,2.25 0.734,0.57 1.106,2.26 0.863,0.57 v 0.56 l 3.809,0.57 0.121,1.69 1.965,0.57 0.98,1.69 0.5,0.57 0.73,2.26 1.23,0.56 1.11,1.14 h 0.12 l 1.11,4.52 2.7,0.56 0.98,3.39 0.37,0.57 0.49,2.26 1.48,0.57 0.73,3.96 0.99,0.56 0.98,1.13 h 0.37 l 0.98,2.26 h 0.86 v 1.13 l 2.58,0.57 0.37,1.13 2.7,0.56 0.99,1.13 0.86,0.57 0.86,2.26 h 0.36 l 0.37,2.26 2.71,0.56 1.1,1.7 0.98,0.57 v 0.56 l 2.59,0.57 1.1,2.82 0.49,0.57 0.5,2.26 h 0.73 l 0.74,1.7 h 0.61 v 1.69 l 1.48,0.57 1.1,1.69 0.62,0.57 0.86,1.69 1.72,0.57 0.37,1.69 0.98,0.57 1.11,2.26 0.98,0.57 0.61,1.13 h 1.11 l 0.37,1.69 h 1.35 l 0.98,2.26 1.72,0.57 v 0.56 l 2.7,0.57 v 0.57 l 1.85,0.56 0.49,1.13 1.96,0.57 0.86,2.25 h 1.48 l 1.11,3.4 0.86,0.56 0.98,2.26 2.33,0.57 v 0.57 l 1.6,0.56 0.74,1.69 h 0.61 l 0.61,1.7 1.36,0.57 0.86,1.13 1.72,0.56 v 0.57 l 1.47,0.56 1.11,1.7 0.86,0.57 v 0.56 l 1.59,0.56 0.99,2.83 0.61,0.57 1.11,2.26 h 0.49 l 0.61,2.26 3.08,0.56 1.1,2.83 h 0.61 l 1.11,2.26 0.74,0.57 1.1,2.26 1.48,0.56 0.73,2.26 0.99,0.57 0.25,3.39 h 1.1 l 0.37,1.7 h 1.1 v 1.13 l 2.09,0.56 0.99,2.26 0.73,0.57 0.37,1.69 1.84,0.57 1.11,1.7 0.74,0.56 1.1,3.39 1.23,0.57 v 0.56 l 2.58,0.57 v 0.56 l 3.44,0.57 0.49,3.39 0.86,0.56 v 0.57 l 2.09,0.57 1.11,1.13 2.21,0.56 v 1.13 l 2.82,0.57 v 0.56 l 3.32,0.57 0.98,1.69 0.99,0.57 0.37,1.69 0.98,0.57 0.37,1.13 2.21,0.57 0.12,1.13 h 1.85 l 0.86,2.26 h 0.49 l 0.98,3.39 2.7,0.56 0.62,1.14 h 1.11 v 1.12 h 2.08 l 1.11,2.27 2.7,0.56 0.62,2.26 h 1.84 l 0.86,5.09 h 0.49 l 0.24,1.7 h 0.74 0.74 l 0.12,1.69 h 0.87 l 1.71,0.57 v 0.56 h 1.72 v 1.13 l 3.81,0.57 0.49,2.82 1.85,0.57 0.98,2.26 0.62,0.56 0.73,2.27 1.23,0.56 0.61,2.26 2.22,0.57 0.12,1.7 1.6,0.56 1.1,2.26 2.71,0.57 v 1.13 l 1.35,0.56 1.1,2.26 0.74,0.57 0.12,2.26 h 2.34 l 0.74,1.69 h 0.48 l 0.99,2.26 h 0.49 l 0.61,2.27 2.59,0.56 v 1.13 l 1.72,0.57 v 0.56 l 3.31,0.57 0.99,3.39 0.86,0.56 1.1,1.14 2.58,0.56 0.98,4.52 1.48,0.57 v 0.57 l 2.33,0.56 v 1.69 l 1.6,0.57 0.86,1.13 2.58,0.57 1.11,1.69 0.36,0.57 0.99,2.26 2.09,0.56 v 0.57 h 1.35 l 0.98,2.83 2.58,0.56 0.98,1.13 1.23,0.57 0.74,1.69 4.06,0.57 1.1,1.69 1.85,0.57 0.12,0.56 h 0.24 l 3.69,0.57 0.24,1.13 1.97,0.56 0.25,1.7 1.84,0.57 1.11,1.69 0.48,0.57 1.11,2.26 1.97,0.56 0.86,1.7 1.47,0.56 0.49,1.7 h 0.62 l 2.7,0.57 v 0.56 h 1.72 l 1.11,2.83 0.49,0.56 1.1,2.26 2.46,0.57 1.11,2.26 0.61,0.57 0.13,1.12 2.7,0.57 1.1,2.26 1.84,0.56 0.74,2.27 0.86,0.56 0.13,1.13 1.72,0.57 0.85,1.69 3.2,0.57 0.86,1.13 1.84,0.57 0.37,1.12 2.7,0.57 0.87,3.96 1.47,0.56 v 0.57 l 3.44,0.56 v 0.57 h 2.33 l 0.62,2.26 0.98,0.56 0.86,1.14 h 0.49 v 1.13 l 3.44,0.56 0.86,2.26 1.23,0.57 0.74,1.13 h 0.98 l 1.11,2.26 1.6,0.56 0.98,2.26 1.11,0.57 0.61,1.7 1.96,0.56 1.11,1.7 9.09,0.56 v 2.83 l 4.06,0.57 0.86,1.12 1.35,0.57 0.24,1.7 1.48,0.56 0.86,0.57 h 0.24 l 0.49,0.56 0.86,1.7 2.59,0.56 0.86,1.7 2.09,0.56 0.73,1.13 0.98,0.57 0.38,2.26 2.82,0.57 v 0.56 l 4.18,0.57 0.37,2.26 1.22,0.57 0.87,2.25 4.91,0.57 1.11,3.39 2.33,0.57 0.24,1.69 3.45,0.57 0.61,1.13 1.6,0.56 v 0.57 l 2.58,0.56 0.61,1.14 h 0.61 l 0.99,1.69 1.96,0.57 0.62,1.13 2.09,0.56 v 0.56 l 2.83,0.57 0.98,2.83 2.7,0.56 v 0.57 l 2.95,0.56 0.61,2.27 5.04,0.56 0.61,1.13 1.6,0.57 0.86,1.13 1.48,0.56 v 1.13 l 1.47,0.57 1.11,1.69 1.1,0.57 0.62,1.13 0.86,0.57 0.12,1.12 1.96,0.57 0.74,1.13 1.11,0.57 0.98,1.13 0.99,0.56 1.1,1.7 1.11,0.56 0.61,1.7 1.47,0.56 v 0.57 l 3.2,0.56 0.12,2.83 h 0.62 l 3.8,0.56 1.11,2.83 2.09,0.57 0.37,1.69 h 3.56 v 1.13 l 1.48,0.57 v 1.13 l 3.56,0.56 0.74,1.13 1.35,0.57 v 0.57 l 1.84,0.56 0.86,1.7 h 1.11 l 0.86,2.82 1.72,0.57 v 1.13 l 2.58,0.56 0.86,1.7 2.21,0.57 0.24,1.12 1.97,0.57 1.1,2.83 1.97,0.56 0.74,1.13 0.61,0.57 1.11,4.52 1.84,0.57 v 1.13 l 3.57,0.56 v 0.57 h 1.96 l 0.74,2.26 2.82,0.56 1.11,1.7 0.61,0.56 0.99,2.83 1.1,0.57 1.11,2.26 1.6,0.56 0.73,1.7 1.11,0.57 1.1,1.69 2.59,0.56 1.1,2.26 h 0.12 l 1.11,3.4 1.23,0.56 0.12,1.13 3.56,0.57 0.74,1.13 1.72,0.56 0.49,1.14 2.21,0.56 v 0.56 l 4.55,0.57 v 0.57 l 3.19,0.56 v 0.57 l 4.8,0.56 0.24,1.13 1.97,0.57 0.61,1.13 1.85,0.56 0.98,0.57 2.33,0.56 0.49,1.13 1.72,0.57 0.62,1.7 1.59,0.56 1.11,0.57 2.83,0.56 0.98,1.13 4.06,0.57 1.1,1.13 4.92,0.56 0.98,1.13 h 1.1 l 0.99,3.4 1.1,0.56 0.86,1.7 1.11,0.56 1.11,1.13 1.35,0.57 0.98,2.82 1.35,0.57 0.74,1.7 1.96,0.56 0.99,2.26 1.47,0.57 0.74,1.69 h 0.37 l 0.73,0.57 v 0.56 h 1.23 l 1.11,2.26 1.47,0.57 v 0.56 l 1.97,0.57 v 0.56 l 3.93,0.57 0.49,2.26 2.83,0.56 0.74,2.83 2.33,0.57 v 0.56 l 2.46,0.57 0.73,1.69 0.62,0.57 0.61,1.13 1.35,0.56 0.13,1.13 h 0.61 l 4.67,0.57 0.12,1.13 4.67,0.57 0.86,2.26 3.07,0.56 0.5,1.7 1.96,0.56 v 0.57 l 2.21,0.56 0.99,1.7 4.42,0.57 v 0.56 l 1.6,0.56 0.24,1.14 1.72,0.56 1.11,2.83 0.73,0.56 0.25,0.57 3.2,0.56 1.1,1.7 1.35,0.56 v 0.57 l 1.85,0.56 0.61,1.14 h 0.74 l 0.12,2.26 h 0.98 l 3.2,0.56 1.1,1.7 h 0.74 v 1.13 l 3.81,0.57 0.12,1.69 1.85,0.56 0.12,1.14 2.45,0.56 0.99,1.7 0.61,0.56 0.37,2.26 1.97,0.57 v 0.56 l 4.79,0.57 1.11,1.69 1.47,0.57 v 0.57 l 3.69,0.56 v 0.56 l 2.08,0.57 0.25,1.13 3.07,0.57 1.11,1.12 h 0.49 l 0.86,2.83 1.72,0.57 0.86,2.26 3.07,0.56 0.74,1.7 2.58,0.57 v 0.56 l 1.84,0.56 0.62,1.14 1.35,0.56 v 0.57 l 3.81,0.56 0.36,1.7 h 0.74 l 1.72,0.56 0.86,1.7 1.23,0.57 1.11,2.26 1.35,0.56 1.1,2.83 1.11,0.56 0.86,1.13 2.7,0.57 0.62,2.82 1.35,0.57 v 1.7 h 0.86 l 3.19,0.56 1.11,1.13 2.95,0.57 v 0.56 l 3.56,0.57 v 0.56 h 2.33 v 1.13 h 1.85 v 1.13 l 3.19,0.57 0.37,0.56 h 0.25 l 1.35,0.57 0.86,2.82 2.33,0.57 0.99,1.13 0.36,0.57 0.12,0.56 h 0.5 l 1.59,0.57 0.5,1.13 5.4,0.56 v 0.57 l 4.06,0.56 v 1.14 l 4.79,0.56 1.47,2.26 4.92,0.57 0.98,1.69 2.33,0.57 0.74,0.56 h 0.25 l 1.1,0.57 0.86,1.13 h 0.13 l 1.84,0.56 0.98,2.26 0.99,0.57 0.73,1.13 12.66,8.48 1.97,0.56 0.98,1.7 1.84,0.56 0.12,1.14 6.76,0.56 0.74,1.13 h 1.1 l 0.25,1.7 h 0.74 l 1.59,0.56 0.86,2.26 5.41,0.57 v 0.56 l 3.81,0.57 0.61,1.7 2.95,0.56 0.13,1.13 h 0.86 l 3.31,0.57 0.99,1.69 2.82,0.57 v 0.56 l 4.42,0.57 0.37,1.13 h 0.74 l 0.49,0.56 1.11,1.7 4.05,0.57 0.62,2.26 4.3,0.56 0.86,0.57 1.96,0.56 0.99,1.7 2.45,0.56 v 1.13 h 0.98 0.25 l 0.86,1.7 1.11,0.56 v 0.57 l 4.54,0.56 v 0.57 l 3.56,0.57 0.5,2.25 1.59,0.57 0.86,1.7 2.09,0.56 1.11,1.7 0.98,0.56 1.11,1.13 1.47,0.57 0.25,1.13 5.4,0.56 0.37,0.57 2.58,2.83 12.04,4.52 5.78,6.78 6.63,0.57 0.37,1.69 3.69,0.57 0.24,1.69 1.36,0.57 v 0.57 l 1.96,0.56 0.74,1.69 h 0.12 l 9.71,2.27 0.73,1.69 2.34,0.57 1.11,1.13 2.33,0.56 0.62,2.26 2.33,0.57 12.41,7.92 0.86,1.69 1.35,0.56 v 0.57 h 2.46 l 0.12,1.69 3.44,0.57 0.62,1.13 3.8,0.57 0.62,1.13 2.33,0.56 1.11,1.13 0.24,0.57 0.5,1.69 h 1.1 l 0.62,1.7 3.07,0.56 1.1,2.83 2.46,0.57 v 0.56 h 2.83 v 0.57 l 0.24,0.56 1.48,0.57 0.73,1.13 4.3,0.56 v 0.57 l 4.67,0.56 v 0.57 l 2.21,0.56 0.25,1.14 3.69,0.56 v 0.57 h 1.22 l 1.11,2.82 1.35,0.57 0.86,1.13 2.21,0.57 0.74,0.56 h 0.37 1.35 l 0.74,1.69 4.18,0.57 0.24,1.13 2.09,0.56 0.49,1.14 1.84,0.56 0.99,1.13 1.47,0.57 0.86,2.26 5.41,0.56 v 1.13 l 3.44,0.57 0.74,1.13 2.33,0.56 v 0.57 l 3.81,0.57 0.86,2.25 0.73,0.57 0.38,1.7 3.31,0.56 0.86,1.7 2.7,0.56 0.38,1.7 h 1.1 l 0.49,1.7 4.3,0.56 v 0.56 l 3.69,0.57 0.86,1.13 1.1,0.57 1.11,2.82 h 1.6 l 0.73,2.27 3.69,0.56 0.74,1.13 2.58,0.57 0.73,1.13 h 1.85 l 0.61,2.26 2.09,0.56 v 1.13 l 9.58,0.57 v 0.56 l 2.09,0.57 0.13,1.69 1.84,0.57 0.86,1.7 1.96,0.56 v 0.56 l 2.34,0.57 0.25,0.57 4.91,0.56 v 0.57 l 3.68,0.56 1.11,1.7 1.84,0.56 v 0.57 l 2.58,0.56 0.62,1.14 1.84,0.56 0.74,1.13 2.21,0.56 0.98,3.4 3.32,0.56 0.25,1.13 h 2.21 l 0.86,1.7 0.74,0.57 1.1,1.12 h 1.35 l 0.12,2.83 2.46,0.56 0.74,2.27 1.6,0.56 v 0.57 l 1.59,0.56 0.86,2.83 4.18,0.56 0.86,1.7 0.74,0.56 v 0.57 l 6.26,0.57 v 0.56 l 3.44,0.57 0.13,1.13 3.56,0.56 v 0.57 l 2.95,0.56 v 0.57 l 2.21,0.56 0.74,1.7 h 0.49 l 0.12,1.69 1.72,0.57 v 0.57 l 2.09,0.56 v 0.57 l 2.71,0.56 v 0.57 h 7.98 l 1.11,2.26 2.45,0.56 0.74,1.13 1.6,0.57 1.1,1.69 1.23,0.57 1.11,1.69 1.6,0.57 1.1,1.7 1.11,0.56 v 0.57 l 1.72,0.56 v 0.57 l 2.33,0.56 0.62,1.13 h 1.1 v 1.13 l 3.2,0.57 v 1.69 l 3.19,0.57 0.74,1.7 2.7,0.56 0.74,1.13 7.62,0.57 1.1,1.13 1.72,0.56 v 1.13 l 2.58,0.57 v 0.56 l 1.85,0.57 0.98,1.13 7.12,0.57 0.86,1.13 h 0.62 v 1.12 l 6.14,0.57 0.99,1.13 0.73,0.57 v 0.56 l 1.97,0.57 v 0.56 l 2.46,0.57 0.86,1.13 2.21,0.56 v 0.57 l 1.35,0.57 0.61,1.69 3.2,0.57 0.61,2.26 3.81,0.56 0.98,1.13 1.72,0.57 v 0.56 l 2.58,0.57 1.11,1.7 1.11,0.56 0.37,2.26 1.1,0.57 0.37,1.12 1.6,0.57 v 1.13 l 4.66,0.57 0.13,1.13 3.56,0.56 v 0.57 h 1.6 l 1.11,2.26 2.33,0.57 0.98,1.13 0.86,0.56 v 0.56 l 5.53,0.57 0.49,1.13 3.93,0.57 v 0.56 l 5.29,0.57 v 0.56 l 3.32,0.57 0.36,1.13 h 1.6 v 1.13 l 2.7,0.57 0.99,1.12 1.96,0.57 v 0.56 l 9.83,0.57 v 0.57 l 3.93,0.56 v 1.13 l 3.44,0.57 v 0.56 l 2.46,0.57 v 0.56 l 2.21,0.57 1.11,1.69 1.72,0.57 v 0.56 l 1.96,0.57 v 0.56 l 2.21,0.57 v 0.57 l 8.48,0.56 0.5,2.26 2.57,0.57 0.99,1.13 1.84,0.56 0.37,1.13 1.84,0.57 0.86,2.26 2.09,0.56 0.74,1.7 4.05,0.57 0.99,1.13 1.1,0.56 0.62,1.7 3.8,0.56 1.11,1.13 3.19,0.57 0.74,1.13 0.99,0.56 v 0.57 l 1.84,0.56 1.1,1.7 2.83,0.56 0.12,1.14 6.03,0.56 v 0.57 l 3.07,0.56 v 0.57 l 5.89,0.56 v 1.13 l 2.71,0.57 0.86,1.13 h 0.73 l 0.62,1.7 8.97,0.56 0.24,1.13 3.32,0.57 v 0.56 l 2.09,0.57 v 0.56 l 2.7,0.56 v 1.14 l 4.79,0.56 0.62,1.7 3.31,0.56 0.99,1.13 3.19,0.57 1.11,1.7 5.16,0.56 v 0.57 l 5.53,0.56 v 0.56 l 2.21,0.57 v 0.57 l 2.46,0.56 v 0.57 l 3.68,0.56 0.5,1.7 2.45,0.56 0.98,1.13 0.62,0.57 v 0.57 l 1.96,0.56 0.62,1.69 1.72,0.57 0.49,1.13 1.23,0.57 0.12,1.13 6.51,0.56 0.49,1.13 5.41,0.57 0.98,1.7 1.6,0.56 0.74,1.7 1.35,0.56 0.49,1.69 2.21,0.57 v 0.57 l 2.09,0.56 1.11,1.13 h 1.96 l 1.11,2.83 2.83,0.56 0.24,1.14 2.7,0.56 v 0.57 h 1.6 v 1.12 l 2.58,0.57 0.37,1.13 1.35,0.57 v 0.56 l 2.46,0.57 0.73,1.13 3.08,0.56 v 0.57 l 4.67,0.56 v 0.57 l 1.59,0.57 0.74,2.25 2.71,0.57 v 0.57 l 3.07,0.56 v 0.57 h 3.56 l 0.61,1.69 h 2.34 v 1.13 l 3.19,0.57 0.62,1.13 2.95,0.57 v 0.56 l 3.56,0.56 v 0.57 l 4.42,0.56 1.11,1.14 2.09,0.56 0.85,2.26 1.73,0.57 0.12,1.13 4.18,0.56 v 1.13 l 9.58,0.57 0.98,1.13 5.78,0.56 v 0.57 l 6.02,0.57 0.86,1.12 1.97,0.57 v 0.57 l 2.45,0.56 0.98,1.13 1.23,0.57 0.12,1.13 2.22,0.56 1.1,1.7 0.86,0.57 v 0.56 l 5.78,0.56 v 0.57 l 3.31,0.56 1.11,1.14 0.74,0.56 v 0.57 l 3.19,0.56 1.11,1.13 3.81,0.57 v 0.56 l 4.05,0.57 0.49,1.69 h 3.2 v 1.13 l 4.42,0.57 v 0.56 l 2.58,0.57 v 0.57 l 9.34,0.56 v 0.56 l 5.28,0.57 v 0.57 l 3.57,0.56 0.36,1.13 4.67,0.57 0.25,1.13 7.12,0.56 0.87,1.13 2.95,0.57 v 0.56 l 2.69,0.57 1.11,2.26 0.86,0.57 v 0.56 l 5.53,0.57 v 0.56 l 3.2,0.56 v 0.57 l 3.31,0.57 v 0.56 l 3.08,0.57 1.1,1.69 3.56,0.57 0.37,1.69 4.06,0.57 0.36,1.13 4.55,0.56 0.74,2.27 h 0.49 l 0.98,2.26 3.08,0.56 0.86,1.7 4.91,0.56 v 0.57 l 1.48,0.57 v 0.56 l 6.51,0.56 0.24,1.7 2.58,0.57 0.12,1.12 2.59,0.57 v 0.57 l 12.16,0.56 1.1,2.26 9.59,0.57 v 0.56 l 2.95,0.57 0.61,1.7 h 0.86 l 0.74,2.25 2.95,0.57 v 0.57 l 5.53,0.56 v 0.57 l 1.96,0.56 v 1.13 l 3.81,0.57 0.99,1.13 4.54,0.56 1.11,1.7 6.38,0.56 0.13,1.13 4.54,0.57 v 0.57 l 4.43,0.56 0.24,1.13 2.95,0.57 0.25,1.69 2.45,0.57 v 0.56 l 6.03,0.57 0.98,1.69 2.21,0.57 v 0.56 l 3.81,0.57 v 0.57 l 7.86,0.56 0.49,1.13 2.34,0.57 v 0.56 l 6.39,0.57 0.73,1.13 1.48,0.56 0.61,2.26 2.71,0.57 v 0.56 l 5.16,0.57 0.73,1.13 0.98,0.56 0.38,1.14 2.33,0.56 v 1.13 l 5.9,0.57 v 0.56 l 3.8,0.57 v 0.56 l 10.08,0.57 v 0.56 h 5.53 v 1.13 h 1.47 v 1.13 l 9.71,0.57 v 0.56 h 3.44 l 0.99,2.27 3.56,0.56 0.98,1.13 5.04,0.57 1.1,2.26 7.01,0.57 v 0.56 l 3.19,0.56 0.74,2.27 h 0.61 v 1.12 l 4.67,0.57 v 0.57 h 1.35 l 0.74,2.26 4.54,0.56 v 0.57 l 5.29,0.56 v 0.57 l 4.05,0.56 0.25,1.13 5.77,0.57 1.11,1.13 6.64,0.56 v 0.57 l 8.35,0.57 1.11,1.13 5.89,0.56 v 0.56 l 4.79,0.57 v 0.57 l 3.57,0.56 v 1.13 l 5.53,0.57 0.37,1.13 8.23,0.56 0.12,1.13 5.77,0.57 0.99,1.7 8.72,0.56 v 0.56 h 5.04 v 1.14 h 1.47 l 0.62,1.69 4.3,0.57 v 0.56 l 3.93,0.57 v 0.56 l 5.65,0.57 0.25,0.56 h 0.24 l 2.58,0.57 1.11,1.13 h 3.07 v 1.13 l 4.18,0.56 0.61,0.57 h 0.25 l 2.21,0.57 0.37,0.56 7.13,0.57 v 0.56 l 5.16,0.57 v 0.56 l 3.92,0.57 v 0.56 l 5.78,0.57 0.74,1.69 6.39,0.57 v 0.56 l 8.23,0.57 0.98,0.57 4.8,0.56 v 0.57 l 4.3,0.56 v 0.56 l 2.57,0.57 1.11,1.7 1.6,0.56 v 0.57 l 5.53,0.56 1.1,1.13 3.81,0.57 1.11,1.13 2.33,0.57 0.25,1.12 2.7,0.57 1.1,1.7 h 1.85 l 0.37,1.69 2.09,0.57 v 0.56 l 7.37,0.57 0.73,1.13 5.29,0.56 0.12,1.14 5.41,0.56 0.61,0.56 h 0.25 l 2.45,0.57 0.74,1.13 2.83,0.57 v 0.56 l 6.02,0.56 1.11,1.7 3.8,0.57 1.11,1.69 5.53,0.57 0.61,1.13 9.71,0.56 0.49,2.27 4.67,0.56 v 0.56 l 4.18,0.57 v 0.57 l 5.16,0.56 0.12,1.13 8.85,0.56 v 0.57 l 14,0.57 v 0.56 l 12.66,0.57 v 0.56 l 6.02,0.57 v 0.56 l 2.7,0.57 v 0.56 l 9.34,0.57 0.12,1.13 6.14,0.57 v 0.56 l 2.22,0.57 0.49,1.13 5.9,0.56 0.61,1.13 3.81,0.57 0.12,1.13 3.32,0.56 0.74,1.13 3.68,0.57 v 0.56 l 2.22,0.57 0.61,1.13 2.21,0.56 0.62,1.14 3.43,0.56 1.11,1.13 8.72,0.57 0.74,1.13 1.48,0.56 v 0.57 l 5.52,0.56 v 0.57 l 8.97,0.56 v 0.57 l 2.59,0.57 v 0.56 l 5.4,0.56 v 0.57 h 1.84 v 1.13 l 13.27,0.57 0.62,1.12 9.95,0.57 v 0.57 l 6.63,0.56 v 0.57 l 2.59,0.56 0.73,1.13 1.97,0.57 v 0.56 l 4.54,0.57 v 0.56 l 5.9,0.57 0.74,1.7 4.42,0.56 0.13,1.13 3.07,0.57 v 0.56 l 15.11,0.57 v 0.56 l 2.82,0.57 0.99,1.13 2.46,0.56 0.49,1.13 5.28,0.57 0.37,1.13 4.54,0.56 0.62,1.13 4.3,0.57 v 0.57 l 15.11,0.56 1.11,1.7 1.72,0.56 v 0.57 l 2.7,0.56 0.61,1.13 5.9,0.57 0.98,1.13 4.3,0.56 v 0.57 l 7.75,0.57 1.1,1.13 13.03,0.56 v 0.56 h 8.72 v 1.14 l 8.6,0.56 v 0.57 l 12.66,0.56 v 0.57 l 7,0.56 0.12,1.13 h 1.23 v 1.13 l 2.83,0.57 1.1,2.26 6.15,0.56 0.98,1.14 8.84,0.56 v 0.57 l 3.57,0.56 v 0.57 l 8.11,0.56 v 0.57 l 2.33,0.56 0.12,1.13 4.06,0.57 v 0.57 l 4.42,0.56 v 0.56 l 6.39,0.57 v 0.56 l 8.23,0.57 0.98,1.7 5.66,0.56 v 0.57 l 1.72,0.56 v 0.57 l 10.19,0.56 v 0.57 l 3.94,0.56 0.61,1.13 11.92,0.57 v 0.56 l 3.32,0.57 v 0.56 l 7.37,0.57 0.74,1.13 12.9,0.56 0.98,1.7 15.24,0.57 v 0.56 l 6.26,0.57 v 0.56 l 14.99,0.57 v 0.56 l 2.82,0.57 1.11,2.26 4.06,0.56 v 0.57 l 5.4,0.56 v 0.57 l 3.44,0.57 v 0.56 l 15.98,0.57 0.73,1.12 3.2,0.57 v 0.57 l 4.42,0.56 v 1.13 l 5.41,0.57 v 0.56 l 4.3,0.57 v 0.56 l 29.73,0.57 v 0.56 l 19.29,0.57 v 0.57 h 3.44 l 0.49,2.26 8.6,0.56 v 0.57 l 14.99,0.56 0.74,1.13 10.81,0.57 v 0.56 l 10.69,0.57 9.71,1.13 27.89,0.56 v 0" /></g></g><path
         id="path156"
         style="fill:none;stroke:#000000;stroke-width:8;stroke-linecap:square;stroke-linejoin:miter;stroke-miterlimit:10;stroke-dasharray:none;stroke-opacity:1"
         d="M 540,360 V 2534.4" /><path
         id="path158"
         style="fill:none;stroke:#000000;stroke-width:8;stroke-linecap:square;stroke-linejoin:miter;stroke-miterlimit:10;stroke-dasharray:none;stroke-opacity:1"
         d="M 3888,360 V 2534.4" /><path
         id="path160"
         style="fill:none;stroke:#000000;stroke-width:8;stroke-linecap:square;stroke-linejoin:miter;stroke-miterlimit:10;stroke-dasharray:none;stroke-opacity:1"
         d="M 540,360 H 3888" /><path
         id="path162"
         style="fill:none;stroke:#000000;stroke-width:8;stroke-linecap:square;stroke-linejoin:miter;stroke-miterlimit:10;stroke-dasharray:none;stroke-opacity:1"
         d="M 540,2534.4 H 3888" /><g
         transform="scale(10)"
         id="g164"><text
           id="text168"
           style="font-variant:normal;font-weight:normal;font-size:12px;font-family:Arial;-inkscape-font-specification:Arial;writing-mode:lr-tb;fill:#000000;fill-opacity:1;fill-rule:nonzero;stroke:none"
           transform="matrix(1,0,0,-1,175.744,259.44)"><tspan
             id="tspan166"
             y="0"
             x="0 8.3378878 15.691398 23.296871 30.914064 38.255867 49.945332 53.759792 60.662136 68.003937 72.937523 80.320335 86.572334">Random Forest</tspan></text>
</g></g></g></svg>